<?xml version="1.0" encoding="utf-8"?>
<!-- Generator: Adobe Illustrator 19.2.1, SVG Export Plug-In . SVG Version: 6.00 Build 0)  -->
<svg version="1.1" id="Layer_1" xmlns="http://www.w3.org/2000/svg" xmlns:xlink="http://www.w3.org/1999/xlink" x="0px" y="0px"
	 viewBox="0 0 318.8 316" style="enable-background:new 0 0 318.8 316;" xml:space="preserve">
<style type="text/css">
	.st0{fill:#E5D055;}
	.st1{fill:#CDBB48;}
	.st2{fill:#D6242A;}
	.st3{fill:#1C3F73;}
	.st4{fill:#FEE982;}
	.st5{fill:#D6C450;}
	.st6{fill:#183869;}
	.st7{fill:#C12024;}
</style>
<g>
	<g>
		<g>
			<g>
				<polygon class="st0" points="258.8,31 318.8,57 282.1,0 				"/>
			</g>
			<g>
				<polygon class="st1" points="282.1,0 288.8,44 258.8,31 				"/>
			</g>
			<polygon class="st2" points="302.6,108.9 211.4,94.1 142.4,220.1 			"/>
			<polygon class="st3" points="89.1,316 191.9,246 182.8,192.1 142.4,220.1 			"/>
			<polygon class="st4" points="211.4,94.1 282.1,0 268.8,103.4 			"/>
			<polygon class="st4" points="233.2,157.1 148.1,157.1 58.9,23.6 122.7,22.3 233.2,97.6 			"/>
			<g>
				<polyline class="st5" points="122.7,22.3 94.3,76.7 58.9,23.6 120.1,22.3 				"/>
			</g>
			<g>
				<polygon class="st0" points="58.9,23.6 0,93.4 122.7,22.3 				"/>
			</g>
			<g>
				<polygon class="st0" points="295.9,134.4 285.7,147.2 302.6,142 				"/>
			</g>
			<polygon class="st6" points="181.5,193 89.1,316 142.4,220.1 			"/>
		</g>
	</g>
	<polygon class="st7" points="268.8,103.4 302.6,142 302.6,108.9 	"/>
</g>
</svg>
